$MeshFormat
4.1 0 8
$EndMeshFormat
$Entities
4 4 1 0
1 0.02 0 0 0 
2 -0.02 0 0 0 
3 0 0.0025 0 0 
4 0 -0.0025 0 0 
1 -0.02 -0.0025 0 0 0 0 0 2 2 -4 
2 0 -0.0025 0 0.02 0 0 0 2 4 -1 
3 0 0 0 0.02 0.0025 0 0 2 1 -3 
4 -0.02 0 0 0 0.0025 0 0 2 3 -2 
1 -0.02 -0.0025 0 0.02 0.0025 0 0 4 4 1 2 3 
$EndEntities
$Nodes
9 400 1 400
0 1 0 1
1
0.02 0 0
0 2 0 1
2
-0.02 0 0
0 3 0 1
3
0 0.0025 0
0 4 0 1
4
0 -0.0025 0
1 1 0 18
5
6
7
8
9
10
11
12
13
14
15
16
17
18
19
20
21
22
-0.01894736842105263 -0.000131578947368421 0
-0.01789473684210526 -0.0002631578947368421 0
-0.01684210526315789 -0.0003947368421052631 0
-0.01578947368421053 -0.0005263157894736841 0
-0.01473684210526316 -0.0006578947368421051 0
-0.01368421052631579 -0.000789473684210526 0
-0.01263157894736843 -0.0009210526315789468 0
-0.01157894736842106 -0.001052631578947368 0
-0.01052631578947369 -0.001184210526315788 0
-0.009473684210526323 -0.00131578947368421 0
-0.008421052631578956 -0.001447368421052631 0
-0.007368421052631588 -0.001578947368421052 0
-0.006315789473684221 -0.001710526315789472 0
-0.005263157894736852 -0.001842105263157894 0
-0.004210526315789484 -0.001973684210526315 0
-0.003157894736842113 -0.002105263157894736 0
-0.002105263157894742 -0.002236842105263157 0
-0.001052631578947371 -0.002368421052631579 0
1 2 0 18
23
24
25
26
27
28
29
30
31
32
33
34
35
36
37
38
39
40
0.001052631578947368 -0.002368421052631579 0
0.002105263157894737 -0.002236842105263158 0
0.003157894736842105 -0.002105263157894737 0
0.004210526315789473 -0.001973684210526316 0
0.005263157894736841 -0.001842105263157895 0
0.006315789473684208 -0.001710526315789474 0
0.007368421052631574 -0.001578947368421053 0
0.00842105263157894 -0.001447368421052633 0
0.009473684210526306 -0.001315789473684212 0
0.01052631578947368 -0.00118421052631579 0
0.01157894736842104 -0.001052631578947369 0
0.01263157894736841 -0.0009210526315789485 0
0.01368421052631578 -0.0007894736842105276 0
0.01473684210526315 -0.0006578947368421064 0
0.01578947368421052 -0.0005263157894736855 0
0.01684210526315789 -0.0003947368421052641 0
0.01789473684210526 -0.0002631578947368427 0
0.01894736842105263 -0.0001315789473684214 0
1 3 0 18
41
42
43
44
45
46
47
48
49
50
51
52
53
54
55
56
57
58
0.01894736842105263 0.000131578947368421 0
0.01789473684210526 0.0002631578947368421 0
0.01684210526315789 0.0003947368421052631 0
0.01578947368421053 0.0005263157894736841 0
0.01473684210526316 0.0006578947368421051 0
0.01368421052631579 0.000789473684210526 0
0.01263157894736843 0.0009210526315789468 0
0.01157894736842106 0.001052631578947368 0
0.01052631578947369 0.001184210526315788 0
0.009473684210526323 0.00131578947368421 0
0.008421052631578956 0.001447368421052631 0
0.007368421052631588 0.001578947368421052 0
0.006315789473684221 0.001710526315789472 0
0.005263157894736852 0.001842105263157894 0
0.004210526315789484 0.001973684210526315 0
0.003157894736842113 0.002105263157894736 0
0.002105263157894742 0.002236842105263157 0
0.001052631578947371 0.002368421052631579 0
1 4 0 18
59
60
61
62
63
64
65
66
67
68
69
70
71
72
73
74
75
76
-0.001052631578947368 0.002368421052631579 0
-0.002105263157894737 0.002236842105263158 0
-0.003157894736842105 0.002105263157894737 0
-0.004210526315789473 0.001973684210526316 0
-0.005263157894736841 0.001842105263157895 0
-0.006315789473684208 0.001710526315789474 0
-0.007368421052631574 0.001578947368421053 0
-0.00842105263157894 0.001447368421052633 0
-0.009473684210526306 0.001315789473684212 0
-0.01052631578947368 0.00118421052631579 0
-0.01157894736842104 0.001052631578947369 0
-0.01263157894736841 0.0009210526315789485 0
-0.01368421052631578 0.0007894736842105276 0
-0.01473684210526315 0.0006578947368421064 0
-0.01578947368421052 0.0005263157894736855 0
-0.01684210526315789 0.0003947368421052641 0
-0.01789473684210526 0.0002631578947368427 0
-0.01894736842105263 0.0001315789473684214 0
2 1 0 324
77
78
79
80
81
82
83
84
85
86
87
88
89
90
91
92
93
94
95
96
97
98
99
100
101
102
103
104
105
106
107
108
109
110
111
112
113
114
115
116
117
118
119
120
121
122
123
124
125
126
127
128
129
130
131
132
133
134
135
136
137
138
139
140
141
142
143
144
145
146
147
148
149
150
151
152
153
154
155
156
157
158
159
160
161
162
163
164
165
166
167
168
169
170
171
172
173
174
175
176
177
178
179
180
181
182
183
184
185
186
187
188
189
190
191
192
193
194
195
196
197
198
199
200
201
202
203
204
205
206
207
208
209
210
211
212
213
214
215
216
217
218
219
220
221
222
223
224
225
226
227
228
229
230
231
232
233
234
235
236
237
238
239
240
241
242
243
244
245
246
247
248
249
250
251
252
253
254
255
256
257
258
259
260
261
262
263
264
265
266
267
268
269
270
271
272
273
274
275
276
277
278
279
280
281
282
283
284
285
286
287
288
289
290
291
292
293
294
295
296
297
298
299
300
301
302
303
304
305
306
307
308
309
310
311
312
313
314
315
316
317
318
319
320
321
322
323
324
325
326
327
328
329
330
331
332
333
334
335
336
337
338
339
340
341
342
343
344
345
346
347
348
349
350
351
352
353
354
355
356
357
358
359
360
361
362
363
364
365
366
367
368
369
370
371
372
373
374
375
376
377
378
379
380
381
382
383
384
385
386
387
388
389
390
391
392
393
394
395
396
397
398
399
400
1.951563910473908e-18 0.002236842105263158 0
0.001052631578947373 0.002105263157894736 0
0.002105263157894744 0.001973684210526315 0
0.003157894736842117 0.001842105263157894 0
0.004210526315789481 0.001710526315789473 0
0.005263157894736851 0.001578947368421051 0
0.006315789473684222 0.001447368421052631 0
0.007368421052631587 0.001315789473684209 0
0.008421052631578956 0.001184210526315789 0
0.009473684210526327 0.001052631578947367 0
0.01052631578947369 0.0009210526315789463 0
0.01157894736842105 0.0007894736842105255 0
0.01263157894736842 0.0006578947368421048 0
0.01368421052631579 0.000526315789473684 0
0.01473684210526316 0.000394736842105263 0
0.01578947368421052 0.0002631578947368418 0
0.01684210526315789 0.0001315789473684208 0
0.01789473684210526 -2.808113660038633e-19 0
-0.001052631578947368 0.002105263157894736 0
3.686287386450715e-18 0.001973684210526316 0
0.001052631578947374 0.001842105263157894 0
0.002105263157894748 0.001710526315789472 0
0.003157894736842113 0.001578947368421052 0
0.004210526315789482 0.00144736842105263 0
0.005263157894736852 0.001315789473684209 0
0.006315789473684219 0.001184210526315788 0
0.007368421052631584 0.001052631578947367 0
0.008421052631578952 0.0009210526315789459 0
0.00947368421052632 0.0007894736842105252 0
0.01052631578947368 0.0006578947368421042 0
0.01157894736842105 0.0005263157894736835 0
0.01263157894736842 0.0003947368421052625 0
0.01368421052631578 0.0002631578947368416 0
0.01473684210526315 0.0001315789473684205 0
0.01578947368421052 -5.09815287477602e-19 0
0.01684210526315789 -0.0001315789473684216 0
-0.002105263157894735 0.001973684210526316 0
-0.001052631578947365 0.001842105263157894 0
5.204170427930421e-18 0.001710526315789473 0
0.001052631578947378 0.001578947368421051 0
0.002105263157894744 0.001447368421052631 0
0.003157894736842112 0.001315789473684209 0
0.004210526315789481 0.001184210526315788 0
0.005263157894736847 0.001052631578947367 0
0.006315789473684213 0.0009210526315789459 0
0.007368421052631582 0.000789473684210525 0
0.008421052631578947 0.0006578947368421043 0
0.009473684210526315 0.0005263157894736833 0
0.01052631578947368 0.0003947368421052621 0
0.01157894736842105 0.0002631578947368414 0
0.01263157894736841 0.0001315789473684205 0
0.01368421052631578 -8.496420902940421e-19 0
0.01473684210526315 -0.0001315789473684218 0
0.01578947368421052 -0.000263157894736843 0
-0.003157894736842105 0.001842105263157894 0
-0.002105263157894734 0.001710526315789473 0
-0.001052631578947365 0.001578947368421052 0
7.37257477290143e-18 0.00144736842105263 0
0.001052631578947373 0.00131578947368421 0
0.002105263157894741 0.001184210526315788 0
0.00315789473684211 0.001052631578947366 0
0.004210526315789475 0.0009210526315789462 0
0.005263157894736841 0.0007894736842105251 0
0.006315789473684209 0.0006578947368421035 0
0.007368421052631574 0.0005263157894736827 0
0.00842105263157894 0.0003947368421052621 0
0.009473684210526306 0.000263157894736841 0
0.01052631578947367 0.00013157894736842 0
0.01157894736842104 -1.029241231331807e-18 0
0.01263157894736841 -0.0001315789473684224 0
0.01368421052631578 -0.0002631578947368434 0
0.01473684210526315 -0.0003947368421052647 0
-0.004210526315789472 0.001710526315789474 0
-0.0031578947368421 0.001578947368421052 0
-0.002105263157894733 0.001447368421052631 0
-0.001052631578947361 0.001315789473684209 0
4.77048955893622e-18 0.001184210526315789 0
0.001052631578947373 0.001052631578947367 0
0.002105263157894742 0.000921052631578946 0
0.003157894736842107 0.0007894736842105249 0
0.004210526315789474 0.0006578947368421044 0
0.005263157894736843 0.0005263157894736827 0
0.006315789473684205 0.0003947368421052622 0
0.007368421052631572 0.0002631578947368411 0
0.008421052631578939 0.0001315789473684202 0
0.009473684210526311 -6.691419502209705e-19 0
0.01052631578947367 -0.0001315789473684217 0
0.01157894736842104 -0.000263157894736843 0
0.01263157894736841 -0.0003947368421052642 0
0.01368421052631578 -0.0005263157894736854 0
-0.005263157894736839 0.001578947368421052 0
-0.004210526315789468 0.001447368421052631 0
-0.0031578947368421 0.00131578947368421 0
-0.002105263157894727 0.001184210526315789 0
-0.001052631578947363 0.001052631578947368 0
6.071532165918825e-18 0.0009210526315789464 0
0.001052631578947373 0.0007894736842105254 0
0.002105263157894739 0.0006578947368421046 0
0.003157894736842104 0.0005263157894736832 0
0.004210526315789474 0.0003947368421052622 0
0.005263157894736838 0.0002631578947368412 0
0.006315789473684204 0.0001315789473684203 0
0.007368421052631569 -6.36705984949936e-19 0
0.008421052631578939 -0.0001315789473684219 0
0.009473684210526304 -0.0002631578947368426 0
0.01052631578947367 -0.0003947368421052642 0
0.01157894736842104 -0.0005263157894736851 0
0.01263157894736841 -0.0006578947368421064 0
-0.006315789473684207 0.001447368421052632 0
-0.005263157894736837 0.00131578947368421 0
-0.004210526315789469 0.001184210526315789 0
-0.003157894736842098 0.001052631578947367 0
-0.00210526315789473 0.0009210526315789467 0
-0.001052631578947362 0.0007894736842105255 0
3.469446951953614e-18 0.0006578947368421045 0
0.001052631578947369 0.0005263157894736832 0
0.002105263157894736 0.0003947368421052624 0
0.003157894736842103 0.0002631578947368411 0
0.00421052631578947 0.0001315789473684202 0
0.005263157894736837 -7.150929010216028e-19 0
0.006315789473684202 -0.0001315789473684218 0
0.007368421052631568 -0.0002631578947368427 0
0.008421052631578935 -0.0003947368421052637 0
0.009473684210526303 -0.0005263157894736851 0
0.01052631578947367 -0.000657894736842106 0
0.01157894736842104 -0.0007894736842105277 0
-0.007368421052631572 0.001315789473684211 0
-0.006315789473684203 0.001184210526315789 0
-0.005263157894736835 0.001052631578947368 0
-0.004210526315789463 0.0009210526315789467 0
-0.003157894736842098 0.0007894736842105258 0
-0.00210526315789473 0.0006578947368421049 0
-0.001052631578947365 0.0005263157894736837 0
8.673617379884035e-19 0.0003947368421052628 0
0.001052631578947368 0.0002631578947368418 0
0.002105263157894736 0.0001315789473684205 0
0.003157894736842101 -3.622016121932184e-19 0
0.004210526315789465 -0.0001315789473684214 0
0.005263157894736834 -0.0002631578947368425 0
0.006315789473684202 -0.0003947368421052635 0
0.007368421052631565 -0.0005263157894736846 0
0.00842105263157894 -0.0006578947368421059 0
0.009473684210526306 -0.0007894736842105272 0
0.01052631578947367 -0.0009210526315789484 0
-0.008421052631578937 0.00118421052631579 0
-0.007368421052631569 0.001052631578947369 0
-0.006315789473684202 0.0009210526315789478 0
-0.005263157894736832 0.0007894736842105259 0
-0.004210526315789465 0.0006578947368421052 0
-0.003157894736842099 0.0005263157894736839 0
-0.00210526315789473 0.0003947368421052629 0
-0.001052631578947365 0.0002631578947368421 0
8.673617379884035e-19 0.000131578947368421 0
0.001052631578947368 -2.285534219560856e-19 0
0.002105263157894734 -0.0001315789473684212 0
0.0031578947368421 -0.0002631578947368421 0
0.004210526315789467 -0.0003947368421052633 0
0.005263157894736834 -0.0005263157894736842 0
0.0063157894736842 -0.0006578947368421055 0
0.007368421052631569 -0.0007894736842105267 0
0.008421052631578939 -0.000921052631578948 0
0.00947368421052631 -0.001052631578947369 0
-0.00947368421052631 0.001052631578947369 0
-0.00842105263157894 0.0009210526315789475 0
-0.007368421052631568 0.0007894736842105267 0
-0.006315789473684203 0.0006578947368421051 0
-0.005263157894736835 0.0005263157894736842 0
-0.00421052631578947 0.0003947368421052631 0
-0.003157894736842103 0.0002631578947368418 0
-0.002105263157894737 0.0001315789473684209 0
-0.001052631578947371 1.111232143544701e-20 0
-2.602085213965211e-18 -0.0001315789473684212 0
0.001052631578947365 -0.0002631578947368421 0
0.002105263157894729 -0.000394736842105263 0
0.003157894736842098 -0.0005263157894736843 0
0.004210526315789463 -0.0006578947368421052 0
0.005263157894736829 -0.000789473684210526 0
0.0063157894736842 -0.0009210526315789481 0
0.007368421052631568 -0.001052631578947369 0
0.008421052631578937 -0.00118421052631579 0
-0.01052631578947368 0.0009210526315789482 0
-0.009473684210526304 0.0007894736842105266 0
-0.00842105263157894 0.0006578947368421058 0
-0.007368421052631568 0.0005263157894736842 0
-0.006315789473684202 0.000394736842105263 0
-0.005263157894736832 0.0002631578947368424 0
-0.00421052631578947 0.0001315789473684211 0
-0.003157894736842103 1.399551834842784e-19 0
-0.002105263157894739 -0.0001315789473684206 0
-0.001052631578947368 -0.000263157894736842 0
-2.602085213965211e-18 -0.0003947368421052628 0
0.001052631578947362 -0.0005263157894736838 0
0.002105263157894728 -0.000657894736842105 0
0.003157894736842098 -0.000789473684210526 0
0.004210526315789462 -0.0009210526315789467 0
0.005263157894736835 -0.001052631578947369 0
0.006315789473684203 -0.00118421052631579 0
0.007368421052631572 -0.001315789473684211 0
-0.01157894736842105 0.0007894736842105272 0
-0.01052631578947368 0.0006578947368421058 0
-0.009473684210526306 0.0005263157894736847 0
-0.008421052631578937 0.0003947368421052633 0
-0.007368421052631569 0.0002631578947368426 0
-0.006315789473684203 0.0001315789473684214 0
-0.005263157894736836 4.832358159360599e-19 0
-0.004210526315789472 -0.0001315789473684203 0
-0.003157894736842106 -0.0002631578947368414 0
-0.002105263157894739 -0.0003947368421052626 0
-0.00105263157894737 -0.0005263157894736835 0
-5.204170427930421e-18 -0.0006578947368421046 0
0.001052631578947361 -0.0007894736842105259 0
0.002105263157894729 -0.0009210526315789465 0
0.003157894736842096 -0.001052631578947368 0
0.004210526315789467 -0.00118421052631579 0
0.005263157894736835 -0.00131578947368421 0
0.006315789473684205 -0.001447368421052632 0
-0.01263157894736841 0.0006578947368421062 0
-0.01157894736842104 0.0005263157894736848 0
-0.01052631578947368 0.0003947368421052639 0
-0.009473684210526306 0.0002631578947368424 0
-0.00842105263157894 0.0001315789473684215 0
-0.007368421052631575 3.904329152994891e-19 0
-0.006315789473684208 -0.0001315789473684206 0
-0.00526315789473684 -0.0002631578947368415 0
-0.004210526315789475 -0.0003947368421052623 0
-0.003157894736842107 -0.0005263157894736837 0
-0.00210526315789474 -0.0006578947368421043 0
-0.001052631578947375 -0.0007894736842105253 0
-6.938893903907228e-18 -0.0009210526315789466 0
0.001052631578947361 -0.001052631578947367 0
0.002105263157894727 -0.001184210526315788 0
0.003157894736842097 -0.00131578947368421 0
0.004210526315789467 -0.001447368421052632 0
0.005263157894736837 -0.001578947368421053 0
-0.01368421052631578 0.0005263157894736851 0
-0.01263157894736842 0.0003947368421052638 0
-0.01157894736842105 0.0002631578947368427 0
-0.01052631578947368 0.0001315789473684215 0
-0.00947368421052631 4.578576764415931e-19 0
-0.008421052631578944 -0.0001315789473684205 0
-0.007368421052631579 -0.0002631578947368416 0
-0.006315789473684209 -0.0003947368421052624 0
-0.005263157894736843 -0.0005263157894736833 0
-0.004210526315789477 -0.0006578947368421044 0
-0.00315789473684211 -0.0007894736842105252 0
-0.002105263157894744 -0.0009210526315789463 0
-0.001052631578947375 -0.001052631578947367 0
-6.071532165918825e-18 -0.001184210526315789 0
0.00105263157894736 -0.001315789473684209 0
0.002105263157894731 -0.001447368421052631 0
0.003157894736842101 -0.001578947368421052 0
0.004210526315789471 -0.001710526315789474 0
-0.01473684210526315 0.0003947368421052644 0
-0.01368421052631578 0.0002631578947368431 0
-0.01263157894736841 0.0001315789473684221 0
-0.01157894736842104 7.397202079866475e-19 0
-0.01052631578947368 -0.0001315789473684203 0
-0.00947368421052631 -0.000263157894736841 0
-0.00842105263157894 -0.0003947368421052624 0
-0.007368421052631579 -0.000526315789473683 0
-0.00631578947368421 -0.0006578947368421037 0
-0.005263157894736845 -0.0007894736842105252 0
-0.004210526315789479 -0.0009210526315789462 0
-0.00315789473684211 -0.001052631578947367 0
-0.002105263157894743 -0.001184210526315788 0
-0.001052631578947374 -0.001315789473684209 0
-8.673617379884035e-18 -0.00144736842105263 0
0.001052631578947364 -0.001578947368421052 0
0.002105263157894733 -0.001710526315789473 0
0.003157894736842104 -0.001842105263157894 0
-0.01578947368421052 0.0002631578947368425 0
-0.01473684210526315 0.0001315789473684215 0
-0.01368421052631578 4.228688805705236e-19 0
-0.01263157894736842 -0.0001315789473684209 0
-0.01157894736842105 -0.0002631578947368417 0
-0.01052631578947368 -0.0003947368421052626 0
-0.009473684210526316 -0.0005263157894736835 0
-0.008421052631578951 -0.0006578947368421044 0
-0.007368421052631583 -0.0007894736842105252 0
-0.006315789473684217 -0.0009210526315789464 0
-0.005263157894736849 -0.001052631578947367 0
-0.004210526315789481 -0.001184210526315788 0
-0.003157894736842113 -0.001315789473684209 0
-0.002105263157894745 -0.001447368421052631 0
-0.001052631578947379 -0.001578947368421051 0
-6.938893903907228e-18 -0.001710526315789473 0
0.001052631578947364 -0.001842105263157894 0
0.002105263157894734 -0.001973684210526315 0
-0.01684210526315789 0.0001315789473684213 0
-0.01578947368421053 1.03614889060249e-19 0
-0.01473684210526315 -0.0001315789473684208 0
-0.01368421052631578 -0.0002631578947368421 0
-0.01263157894736842 -0.0003947368421052629 0
-0.01157894736842105 -0.0005263157894736838 0
-0.01052631578947369 -0.0006578947368421047 0
-0.00947368421052632 -0.0007894736842105256 0
-0.008421052631578952 -0.0009210526315789463 0
-0.007368421052631586 -0.001052631578947368 0
-0.00631578947368422 -0.001184210526315788 0
-0.00526315789473685 -0.001315789473684209 0
-0.004210526315789482 -0.001447368421052631 0
-0.003157894736842114 -0.001578947368421051 0
-0.002105263157894749 -0.001710526315789472 0
-0.001052631578947375 -0.001842105263157894 0
-4.336808689942018e-18 -0.001973684210526315 0
0.001052631578947367 -0.002105263157894736 0
-0.01789473684210527 -1.096215492956258e-19 0
-0.01684210526315789 -0.0001315789473684212 0
-0.01578947368421053 -0.0002631578947368421 0
-0.01473684210526316 -0.0003947368421052631 0
-0.01368421052631579 -0.000526315789473684 0
-0.01263157894736842 -0.0006578947368421049 0
-0.01157894736842106 -0.000789473684210526 0
-0.01052631578947369 -0.0009210526315789469 0
-0.009473684210526329 -0.001052631578947368 0
-0.008421052631578958 -0.001184210526315789 0
-0.007368421052631587 -0.00131578947368421 0
-0.006315789473684223 -0.001447368421052631 0
-0.005263157894736853 -0.001578947368421052 0
-0.004210526315789485 -0.001710526315789473 0
-0.00315789473684212 -0.001842105263157893 0
-0.002105263157894743 -0.001973684210526315 0
-0.001052631578947374 -0.002105263157894736 0
-2.38524477946811e-18 -0.002236842105263158 0
$EndNodes
$Elements
9 802 1 802
0 1 15 1
1 1 
0 2 15 1
2 2 
0 3 15 1
3 3 
0 4 15 1
4 4 
1 1 1 19
5 2 5 
6 5 6 
7 6 7 
8 7 8 
9 8 9 
10 9 10 
11 10 11 
12 11 12 
13 12 13 
14 13 14 
15 14 15 
16 15 16 
17 16 17 
18 17 18 
19 18 19 
20 19 20 
21 20 21 
22 21 22 
23 22 4 
1 2 1 19
24 4 23 
25 23 24 
26 24 25 
27 25 26 
28 26 27 
29 27 28 
30 28 29 
31 29 30 
32 30 31 
33 31 32 
34 32 33 
35 33 34 
36 34 35 
37 35 36 
38 36 37 
39 37 38 
40 38 39 
41 39 40 
42 40 1 
1 3 1 19
43 1 41 
44 41 42 
45 42 43 
46 43 44 
47 44 45 
48 45 46 
49 46 47 
50 47 48 
51 48 49 
52 49 50 
53 50 51 
54 51 52 
55 52 53 
56 53 54 
57 54 55 
58 55 56 
59 56 57 
60 57 58 
61 58 3 
1 4 1 19
62 3 59 
63 59 60 
64 60 61 
65 61 62 
66 62 63 
67 63 64 
68 64 65 
69 65 66 
70 66 67 
71 67 68 
72 68 69 
73 69 70 
74 70 71 
75 71 72 
76 72 73 
77 73 74 
78 74 75 
79 75 76 
80 76 2 
2 1 2 722
81 3 59 58 
82 58 59 77 
83 58 77 57 
84 57 77 78 
85 57 78 56 
86 56 78 79 
87 56 79 55 
88 55 79 80 
89 55 80 54 
90 54 80 81 
91 54 81 53 
92 53 81 82 
93 53 82 52 
94 52 82 83 
95 52 83 51 
96 51 83 84 
97 51 84 50 
98 50 84 85 
99 50 85 49 
100 49 85 86 
101 49 86 48 
102 48 86 87 
103 48 87 47 
104 47 87 88 
105 47 88 46 
106 46 88 89 
107 46 89 45 
108 45 89 90 
109 45 90 44 
110 44 90 91 
111 44 91 43 
112 43 91 92 
113 43 92 42 
114 42 92 93 
115 42 93 41 
116 41 93 94 
117 41 94 1 
118 1 94 40 
119 59 60 77 
120 77 60 95 
121 77 95 78 
122 78 95 96 
123 78 96 79 
124 79 96 97 
125 79 97 80 
126 80 97 98 
127 80 98 81 
128 81 98 99 
129 81 99 82 
130 82 99 100 
131 82 100 83 
132 83 100 101 
133 83 101 84 
134 84 101 102 
135 84 102 85 
136 85 102 103 
137 85 103 86 
138 86 103 104 
139 86 104 87 
140 87 104 105 
141 87 105 88 
142 88 105 106 
143 88 106 89 
144 89 106 107 
145 89 107 90 
146 90 107 108 
147 90 108 91 
148 91 108 109 
149 91 109 92 
150 92 109 110 
151 92 110 93 
152 93 110 111 
153 93 111 94 
154 94 111 112 
155 94 112 40 
156 40 112 39 
157 60 61 95 
158 95 61 113 
159 95 113 96 
160 96 113 114 
161 96 114 97 
162 97 114 115 
163 97 115 98 
164 98 115 116 
165 98 116 99 
166 99 116 117 
167 99 117 100 
168 100 117 118 
169 100 118 101 
170 101 118 119 
171 101 119 102 
172 102 119 120 
173 102 120 103 
174 103 120 121 
175 103 121 104 
176 104 121 122 
177 104 122 105 
178 105 122 123 
179 105 123 106 
180 106 123 124 
181 106 124 107 
182 107 124 125 
183 107 125 108 
184 108 125 126 
185 108 126 109 
186 109 126 127 
187 109 127 110 
188 110 127 128 
189 110 128 111 
190 111 128 129 
191 111 129 112 
192 112 129 130 
193 112 130 39 
194 39 130 38 
195 61 62 113 
196 113 62 131 
197 113 131 114 
198 114 131 132 
199 114 132 115 
200 115 132 133 
201 115 133 116 
202 116 133 134 
203 116 134 117 
204 117 134 135 
205 117 135 118 
206 118 135 136 
207 118 136 119 
208 119 136 137 
209 119 137 120 
210 120 137 138 
211 120 138 121 
212 121 138 139 
213 121 139 122 
214 122 139 140 
215 122 140 123 
216 123 140 141 
217 123 141 124 
218 124 141 142 
219 124 142 125 
220 125 142 143 
221 125 143 126 
222 126 143 144 
223 126 144 127 
224 127 144 145 
225 127 145 128 
226 128 145 146 
227 128 146 129 
228 129 146 147 
229 129 147 130 
230 130 147 148 
231 130 148 38 
232 38 148 37 
233 62 63 131 
234 131 63 149 
235 131 149 132 
236 132 149 150 
237 132 150 133 
238 133 150 151 
239 133 151 134 
240 134 151 152 
241 134 152 135 
242 135 152 153 
243 135 153 136 
244 136 153 154 
245 136 154 137 
246 137 154 155 
247 137 155 138 
248 138 155 156 
249 138 156 139 
250 139 156 157 
251 139 157 140 
252 140 157 158 
253 140 158 141 
254 141 158 159 
255 141 159 142 
256 142 159 160 
257 142 160 143 
258 143 160 161 
259 143 161 144 
260 144 161 162 
261 144 162 145 
262 145 162 163 
263 145 163 146 
264 146 163 164 
265 146 164 147 
266 147 164 165 
267 147 165 148 
268 148 165 166 
269 148 166 37 
270 37 166 36 
271 63 64 149 
272 149 64 167 
273 149 167 150 
274 150 167 168 
275 150 168 151 
276 151 168 169 
277 151 169 152 
278 152 169 170 
279 152 170 153 
280 153 170 171 
281 153 171 154 
282 154 171 172 
283 154 172 155 
284 155 172 173 
285 155 173 156 
286 156 173 174 
287 156 174 157 
288 157 174 175 
289 157 175 158 
290 158 175 176 
291 158 176 159 
292 159 176 177 
293 159 177 160 
294 160 177 178 
295 160 178 161 
296 161 178 179 
297 161 179 162 
298 162 179 180 
299 162 180 163 
300 163 180 181 
301 163 181 164 
302 164 181 182 
303 164 182 165 
304 165 182 183 
305 165 183 166 
306 166 183 184 
307 166 184 36 
308 36 184 35 
309 64 65 167 
310 167 65 185 
311 167 185 168 
312 168 185 186 
313 168 186 169 
314 169 186 187 
315 169 187 170 
316 170 187 188 
317 170 188 171 
318 171 188 189 
319 171 189 172 
320 172 189 190 
321 172 190 173 
322 173 190 191 
323 173 191 174 
324 174 191 192 
325 174 192 175 
326 175 192 193 
327 175 193 176 
328 176 193 194 
329 176 194 177 
330 177 194 195 
331 177 195 178 
332 178 195 196 
333 178 196 179 
334 179 196 197 
335 179 197 180 
336 180 197 198 
337 180 198 181 
338 181 198 199 
339 181 199 182 
340 182 199 200 
341 182 200 183 
342 183 200 201 
343 183 201 184 
344 184 201 202 
345 184 202 35 
346 35 202 34 
347 65 66 185 
348 185 66 203 
349 185 203 186 
350 186 203 204 
351 186 204 187 
352 187 204 205 
353 187 205 188 
354 188 205 206 
355 188 206 189 
356 189 206 207 
357 189 207 190 
358 190 207 208 
359 190 208 191 
360 191 208 209 
361 191 209 192 
362 192 209 210 
363 192 210 193 
364 193 210 211 
365 193 211 194 
366 194 211 212 
367 194 212 195 
368 195 212 213 
369 195 213 196 
370 196 213 214 
371 196 214 197 
372 197 214 215 
373 197 215 198 
374 198 215 216 
375 198 216 199 
376 199 216 217 
377 199 217 200 
378 200 217 218 
379 200 218 201 
380 201 218 219 
381 201 219 202 
382 202 219 220 
383 202 220 34 
384 34 220 33 
385 66 67 203 
386 203 67 221 
387 203 221 204 
388 204 221 222 
389 204 222 205 
390 205 222 223 
391 205 223 206 
392 206 223 224 
393 206 224 207 
394 207 224 225 
395 207 225 208 
396 208 225 226 
397 208 226 209 
398 209 226 227 
399 209 227 210 
400 210 227 228 
401 210 228 211 
402 211 228 229 
403 211 229 212 
404 212 229 230 
405 212 230 213 
406 213 230 231 
407 213 231 214 
408 214 231 232 
409 214 232 215 
410 215 232 233 
411 215 233 216 
412 216 233 234 
413 216 234 217 
414 217 234 235 
415 217 235 218 
416 218 235 236 
417 218 236 219 
418 219 236 237 
419 219 237 220 
420 220 237 238 
421 220 238 33 
422 33 238 32 
423 67 68 221 
424 221 68 239 
425 221 239 222 
426 222 239 240 
427 222 240 223 
428 223 240 241 
429 223 241 224 
430 224 241 242 
431 224 242 225 
432 225 242 243 
433 225 243 226 
434 226 243 244 
435 226 244 227 
436 227 244 245 
437 227 245 228 
438 228 245 246 
439 228 246 229 
440 229 246 247 
441 229 247 230 
442 230 247 248 
443 230 248 231 
444 231 248 249 
445 231 249 232 
446 232 249 250 
447 232 250 233 
448 233 250 251 
449 233 251 234 
450 234 251 252 
451 234 252 235 
452 235 252 253 
453 235 253 236 
454 236 253 254 
455 236 254 237 
456 237 254 255 
457 237 255 238 
458 238 255 256 
459 238 256 32 
460 32 256 31 
461 68 69 239 
462 239 69 257 
463 239 257 240 
464 240 257 258 
465 240 258 241 
466 241 258 259 
467 241 259 242 
468 242 259 260 
469 242 260 243 
470 243 260 261 
471 243 261 244 
472 244 261 262 
473 244 262 245 
474 245 262 263 
475 245 263 246 
476 246 263 264 
477 246 264 247 
478 247 264 265 
479 247 265 248 
480 248 265 266 
481 248 266 249 
482 249 266 267 
483 249 267 250 
484 250 267 268 
485 250 268 251 
486 251 268 269 
487 251 269 252 
488 252 269 270 
489 252 270 253 
490 253 270 271 
491 253 271 254 
492 254 271 272 
493 254 272 255 
494 255 272 273 
495 255 273 256 
496 256 273 274 
497 256 274 31 
498 31 274 30 
499 69 70 257 
500 257 70 275 
501 257 275 258 
502 258 275 276 
503 258 276 259 
504 259 276 277 
505 259 277 260 
506 260 277 278 
507 260 278 261 
508 261 278 279 
509 261 279 262 
510 262 279 280 
511 262 280 263 
512 263 280 281 
513 263 281 264 
514 264 281 282 
515 264 282 265 
516 265 282 283 
517 265 283 266 
518 266 283 284 
519 266 284 267 
520 267 284 285 
521 267 285 268 
522 268 285 286 
523 268 286 269 
524 269 286 287 
525 269 287 270 
526 270 287 288 
527 270 288 271 
528 271 288 289 
529 271 289 272 
530 272 289 290 
531 272 290 273 
532 273 290 291 
533 273 291 274 
534 274 291 292 
535 274 292 30 
536 30 292 29 
537 70 71 275 
538 275 71 293 
539 275 293 276 
540 276 293 294 
541 276 294 277 
542 277 294 295 
543 277 295 278 
544 278 295 296 
545 278 296 279 
546 279 296 297 
547 279 297 280 
548 280 297 298 
549 280 298 281 
550 281 298 299 
551 281 299 282 
552 282 299 300 
553 282 300 283 
554 283 300 301 
555 283 301 284 
556 284 301 302 
557 284 302 285 
558 285 302 303 
559 285 303 286 
560 286 303 304 
561 286 304 287 
562 287 304 305 
563 287 305 288 
564 288 305 306 
565 288 306 289 
566 289 306 307 
567 289 307 290 
568 290 307 308 
569 290 308 291 
570 291 308 309 
571 291 309 292 
572 292 309 310 
573 292 310 29 
574 29 310 28 
575 71 72 293 
576 293 72 311 
577 293 311 294 
578 294 311 312 
579 294 312 295 
580 295 312 313 
581 295 313 296 
582 296 313 314 
583 296 314 297 
584 297 314 315 
585 297 315 298 
586 298 315 316 
587 298 316 299 
588 299 316 317 
589 299 317 300 
590 300 317 318 
591 300 318 301 
592 301 318 319 
593 301 319 302 
594 302 319 320 
595 302 320 303 
596 303 320 321 
597 303 321 304 
598 304 321 322 
599 304 322 305 
600 305 322 323 
601 305 323 306 
602 306 323 324 
603 306 324 307 
604 307 324 325 
605 307 325 308 
606 308 325 326 
607 308 326 309 
608 309 326 327 
609 309 327 310 
610 310 327 328 
611 310 328 28 
612 28 328 27 
613 72 73 311 
614 311 73 329 
615 311 329 312 
616 312 329 330 
617 312 330 313 
618 313 330 331 
619 313 331 314 
620 314 331 332 
621 314 332 315 
622 315 332 333 
623 315 333 316 
624 316 333 334 
625 316 334 317 
626 317 334 335 
627 317 335 318 
628 318 335 336 
629 318 336 319 
630 319 336 337 
631 319 337 320 
632 320 337 338 
633 320 338 321 
634 321 338 339 
635 321 339 322 
636 322 339 340 
637 322 340 323 
638 323 340 341 
639 323 341 324 
640 324 341 342 
641 324 342 325 
642 325 342 343 
643 325 343 326 
644 326 343 344 
645 326 344 327 
646 327 344 345 
647 327 345 328 
648 328 345 346 
649 328 346 27 
650 27 346 26 
651 73 74 329 
652 329 74 347 
653 329 347 330 
654 330 347 348 
655 330 348 331 
656 331 348 349 
657 331 349 332 
658 332 349 350 
659 332 350 333 
660 333 350 351 
661 333 351 334 
662 334 351 352 
663 334 352 335 
664 335 352 353 
665 335 353 336 
666 336 353 354 
667 336 354 337 
668 337 354 355 
669 337 355 338 
670 338 355 356 
671 338 356 339 
672 339 356 357 
673 339 357 340 
674 340 357 358 
675 340 358 341 
676 341 358 359 
677 341 359 342 
678 342 359 360 
679 342 360 343 
680 343 360 361 
681 343 361 344 
682 344 361 362 
683 344 362 345 
684 345 362 363 
685 345 363 346 
686 346 363 364 
687 346 364 26 
688 26 364 25 
689 74 75 347 
690 347 75 365 
691 347 365 348 
692 348 365 366 
693 348 366 349 
694 349 366 367 
695 349 367 350 
696 350 367 368 
697 350 368 351 
698 351 368 369 
699 351 369 352 
700 352 369 370 
701 352 370 353 
702 353 370 371 
703 353 371 354 
704 354 371 372 
705 354 372 355 
706 355 372 373 
707 355 373 356 
708 356 373 374 
709 356 374 357 
710 357 374 375 
711 357 375 358 
712 358 375 376 
713 358 376 359 
714 359 376 377 
715 359 377 360 
716 360 377 378 
717 360 378 361 
718 361 378 379 
719 361 379 362 
720 362 379 380 
721 362 380 363 
722 363 380 381 
723 363 381 364 
724 364 381 382 
725 364 382 25 
726 25 382 24 
727 75 76 365 
728 365 76 383 
729 365 383 366 
730 366 383 384 
731 366 384 367 
732 367 384 385 
733 367 385 368 
734 368 385 386 
735 368 386 369 
736 369 386 387 
737 369 387 370 
738 370 387 388 
739 370 388 371 
740 371 388 389 
741 371 389 372 
742 372 389 390 
743 372 390 373 
744 373 390 391 
745 373 391 374 
746 374 391 392 
747 374 392 375 
748 375 392 393 
749 375 393 376 
750 376 393 394 
751 376 394 377 
752 377 394 395 
753 377 395 378 
754 378 395 396 
755 378 396 379 
756 379 396 397 
757 379 397 380 
758 380 397 398 
759 380 398 381 
760 381 398 399 
761 381 399 382 
762 382 399 400 
763 382 400 24 
764 24 400 23 
765 76 2 383 
766 383 2 5 
767 383 5 384 
768 384 5 6 
769 384 6 385 
770 385 6 7 
771 385 7 386 
772 386 7 8 
773 386 8 387 
774 387 8 9 
775 387 9 388 
776 388 9 10 
777 388 10 389 
778 389 10 11 
779 389 11 390 
780 390 11 12 
781 390 12 391 
782 391 12 13 
783 391 13 392 
784 392 13 14 
785 392 14 393 
786 393 14 15 
787 393 15 394 
788 394 15 16 
789 394 16 395 
790 395 16 17 
791 395 17 396 
792 396 17 18 
793 396 18 397 
794 397 18 19 
795 397 19 398 
796 398 19 20 
797 398 20 399 
798 399 20 21 
799 399 21 400 
800 400 21 22 
801 400 22 23 
802 23 22 4 
$EndElements
