$MeshFormat
4.1 0 8
$EndMeshFormat
$PhysicalNames
1
1 5 "outer"
$EndPhysicalNames
$Entities
4 4 1 0
1 0.02 0 0 0 
2 -0.02 0 0 0 
3 0 0.0025 0 0 
4 0 -0.0025 0 0 
1 0 0 0 0.02 0.0025 0 1 5 2 1 -3 
2 -0.02 0 0 0 0.0025 0 1 5 2 3 -2 
3 -0.02 -0.0025 0 0 0 0 1 5 2 2 -4 
4 0 -0.0025 0 0.02 0 0 1 5 2 4 -1 
1 -0.02 -0.0025 0 0.02 0.0025 0 0 4 2 3 4 1 
$EndEntities
$Nodes
8 76 1 76
0 1 0 1
1
0.02 0 0
0 2 0 1
2
-0.02 0 0
0 3 0 1
3
0 0.0025 0
0 4 0 1
4
0 -0.0025 0
1 1 0 18
5
6
7
8
9
10
11
12
13
14
15
16
17
18
19
20
21
22
0.01894736842105273 0.0001315789473684084 0
0.01789473684211013 0.0002631578947362339 0
0.01684210526316754 0.0003947368421040576 0
0.01578947368422099 0.0005263157894723757 0
0.01473684210527504 0.00065789473684062 0
0.01368421052633246 0.0007894736842084426 0
0.01263157894738877 0.0009210526315764041 0
0.01157894736844396 0.001052631578944505 0
0.01052631578949815 0.001184210526312732 0
0.009473684210550904 0.001315789473681137 0
0.008421052631601931 0.001447368421049759 0
0.007368421052650249 0.001578947368418719 0
0.006315789473701277 0.00171052631578734 0
0.005263157894750148 0.001842105263156232 0
0.004210526315801301 0.001973684210524837 0
0.003157894736849621 0.002105263157893797 0
0.002105263157899332 0.002236842105262584 0
0.00105263157895168 0.00236842105263104 0
1 2 0 18
23
24
25
26
27
28
29
30
31
32
33
34
35
36
37
38
39
40
-0.001052631578945302 0.002368421052631837 0
-0.002105263157890954 0.002236842105263631 0
-0.003157894736835705 0.002105263157895537 0
-0.004210526315779724 0.001973684210527534 0
-0.005263157894724198 0.001842105263159475 0
-0.006315789473668295 0.001710526315791463 0
-0.007368421052612745 0.001578947368423407 0
-0.008421052631556411 0.001447368421055449 0
-0.009473684210502188 0.001315789473687227 0
-0.01052631578944939 0.001184210526318826 0
-0.01157894736839833 0.001052631578950209 0
-0.01263157894734998 0.0009210526315812525 0
-0.01368421052629892 0.0007894736842126355 0
-0.01473684210525001 0.0006578947368437486 0
-0.01578947368419882 0.000526315789475147 0
-0.01684210526315047 0.0003947368421061909 0
-0.01789473684210073 0.0002631578947374087 0
-0.01894736842104835 0.0001315789473689561 0
1 3 0 18
41
42
43
44
45
46
47
48
49
50
51
52
53
54
55
56
57
58
-0.01894736842105273 -0.0001315789473684084 0
-0.01789473684211013 -0.0002631578947362339 0
-0.01684210526316754 -0.0003947368421040576 0
-0.01578947368422099 -0.0005263157894723757 0
-0.01473684210527504 -0.00065789473684062 0
-0.01368421052633246 -0.0007894736842084426 0
-0.01263157894738877 -0.0009210526315764041 0
-0.01157894736844396 -0.001052631578944505 0
-0.01052631578949815 -0.001184210526312732 0
-0.009473684210550904 -0.001315789473681137 0
-0.008421052631601931 -0.001447368421049759 0
-0.007368421052650249 -0.001578947368418719 0
-0.006315789473701277 -0.00171052631578734 0
-0.005263157894750148 -0.001842105263156232 0
-0.004210526315801301 -0.001973684210524837 0
-0.003157894736849621 -0.002105263157893797 0
-0.002105263157899332 -0.002236842105262584 0
-0.00105263157895168 -0.00236842105263104 0
1 4 0 18
59
60
61
62
63
64
65
66
67
68
69
70
71
72
73
74
75
76
0.001052631578945302 -0.002368421052631837 0
0.002105263157890954 -0.002236842105263631 0
0.003157894736835705 -0.002105263157895537 0
0.004210526315779724 -0.001973684210527534 0
0.005263157894724198 -0.001842105263159475 0
0.006315789473668295 -0.001710526315791463 0
0.007368421052612745 -0.001578947368423407 0
0.008421052631556411 -0.001447368421055449 0
0.009473684210502188 -0.001315789473687227 0
0.01052631578944939 -0.001184210526318826 0
0.01157894736839833 -0.001052631578950209 0
0.01263157894734998 -0.0009210526315812525 0
0.01368421052629892 -0.0007894736842126355 0
0.01473684210525001 -0.0006578947368437486 0
0.01578947368419882 -0.000526315789475147 0
0.01684210526315047 -0.0003947368421061909 0
0.01789473684210073 -0.0002631578947374087 0
0.01894736842104835 -0.0001315789473689561 0
$EndNodes
$Elements
4 76 1 76
1 1 1 19
1 1 5 
2 5 6 
3 6 7 
4 7 8 
5 8 9 
6 9 10 
7 10 11 
8 11 12 
9 12 13 
10 13 14 
11 14 15 
12 15 16 
13 16 17 
14 17 18 
15 18 19 
16 19 20 
17 20 21 
18 21 22 
19 22 3 
1 2 1 19
20 3 23 
21 23 24 
22 24 25 
23 25 26 
24 26 27 
25 27 28 
26 28 29 
27 29 30 
28 30 31 
29 31 32 
30 32 33 
31 33 34 
32 34 35 
33 35 36 
34 36 37 
35 37 38 
36 38 39 
37 39 40 
38 40 2 
1 3 1 19
39 2 41 
40 41 42 
41 42 43 
42 43 44 
43 44 45 
44 45 46 
45 46 47 
46 47 48 
47 48 49 
48 49 50 
49 50 51 
50 51 52 
51 52 53 
52 53 54 
53 54 55 
54 55 56 
55 56 57 
56 57 58 
57 58 4 
1 4 1 19
58 4 59 
59 59 60 
60 60 61 
61 61 62 
62 62 63 
63 63 64 
64 64 65 
65 65 66 
66 66 67 
67 67 68 
68 68 69 
69 69 70 
70 70 71 
71 71 72 
72 72 73 
73 73 74 
74 74 75 
75 75 76 
76 76 1 
$EndElements
